<mxfile host="app.diagrams.net" modified="2023-02-14T01:57:56.240Z" agent="5.0 (X11; Linux x86_64) AppleWebKit/537.36 (KHTML, like Gecko) Chrome/108.0.0.0 Safari/537.36" etag="bUAGsTH1a5B3xs73_eku" version="20.8.20" type="github">
  <diagram name="第 1 页" id="AVH7sIGC2iNiJP3TdeZ6">
    <mxGraphModel dx="1041" dy="590" grid="1" gridSize="10" guides="1" tooltips="1" connect="1" arrows="1" fold="1" page="1" pageScale="1" pageWidth="827" pageHeight="1169" math="0" shadow="0">
      <root>
        <mxCell id="0" />
        <mxCell id="1" parent="0" />
        <mxCell id="me26ODatHpE2xPbkecpJ-4" value="" style="group" vertex="1" connectable="0" parent="1">
          <mxGeometry x="430" y="70" width="380" height="400" as="geometry" />
        </mxCell>
        <mxCell id="me26ODatHpE2xPbkecpJ-5" value="zk-demo" style="outlineConnect=0;gradientColor=none;html=1;whiteSpace=wrap;fontSize=12;fontStyle=1;strokeColor=#879196;fillColor=none;verticalAlign=top;align=left;fontColor=#879196;dashed=1;spacingTop=3;labelBorderColor=none;" vertex="1" parent="me26ODatHpE2xPbkecpJ-4">
          <mxGeometry width="380" height="400" as="geometry" />
        </mxCell>
        <mxCell id="me26ODatHpE2xPbkecpJ-3" value="旧人证魔方3.6&lt;br&gt;业务代码" style="rounded=1;whiteSpace=wrap;html=1;" vertex="1" parent="me26ODatHpE2xPbkecpJ-4">
          <mxGeometry x="60.8" y="72.73" width="109.2" height="72.73" as="geometry" />
        </mxCell>
        <mxCell id="me26ODatHpE2xPbkecpJ-9" value="" style="group" vertex="1" connectable="0" parent="1">
          <mxGeometry x="60" y="50" width="240" height="400" as="geometry" />
        </mxCell>
        <mxCell id="me26ODatHpE2xPbkecpJ-10" value="旧人证魔方3.6" style="outlineConnect=0;gradientColor=none;html=1;whiteSpace=wrap;fontSize=12;fontStyle=1;strokeColor=#879196;fillColor=none;verticalAlign=top;align=left;fontColor=#879196;dashed=1;spacingTop=3;labelBorderColor=none;" vertex="1" parent="me26ODatHpE2xPbkecpJ-9">
          <mxGeometry width="240" height="400" as="geometry" />
        </mxCell>
        <mxCell id="me26ODatHpE2xPbkecpJ-11" value="系统模块" style="rounded=1;whiteSpace=wrap;html=1;" vertex="1" parent="me26ODatHpE2xPbkecpJ-9">
          <mxGeometry x="41.31" y="50" width="98.69" height="55.46" as="geometry" />
        </mxCell>
        <mxCell id="me26ODatHpE2xPbkecpJ-13" value="第三方接口&lt;br&gt;功能" style="rounded=1;whiteSpace=wrap;html=1;" vertex="1" parent="me26ODatHpE2xPbkecpJ-9">
          <mxGeometry x="38.4" y="200" width="101.6" height="55.46" as="geometry" />
        </mxCell>
        <mxCell id="me26ODatHpE2xPbkecpJ-14" value="设备端接口&lt;br&gt;功能" style="rounded=1;whiteSpace=wrap;html=1;" vertex="1" parent="me26ODatHpE2xPbkecpJ-9">
          <mxGeometry x="38.4" y="280" width="101.6" height="55.46" as="geometry" />
        </mxCell>
        <mxCell id="me26ODatHpE2xPbkecpJ-15" value="前端页面接口&lt;br&gt;功能" style="rounded=1;whiteSpace=wrap;html=1;" vertex="1" parent="me26ODatHpE2xPbkecpJ-9">
          <mxGeometry x="38.4" y="124.54" width="101.6" height="55.46" as="geometry" />
        </mxCell>
      </root>
    </mxGraphModel>
  </diagram>
</mxfile>
